<svg width="64" height="64" viewBox="0 0 64 64" fill="none" xmlns="http://www.w3.org/2000/svg">
  <rect width="64" height="64" rx="18" fill="#292524"/>
  <path d="M21 48V15h12.6c3.8 0 6.8.8 8.9 2.5 2.1 1.7 3.2 4 3.2 7 0 1.6-.4 3.1-1.3 4.4-.8 1.3-2 2.2-3.6 2.9 1.8.5 3.2 1.4 4.3 2.8 1 1.4 1.5 3 1.5 5 0 3.2-1 5.7-3.1 7.3-2.1 1.6-5 2.4-8.8 2.4H21Zm7-19.2h5.9c3.2-.1 4.9-1.4 4.9-3.9 0-1.4-.4-2.4-1.2-3-.8-.6-2.1-.9-3.9-.9H28v7.8Zm0 5v8.6h6.8c1.5 0 2.7-.4 3.6-1.1.9-.7 1.3-1.8 1.3-3 0-2.9-1.5-4.4-4.5-4.5H28Z" fill="#FFF7ED"/>
</svg>
