<svg width="96" height="96" viewBox="0 0 96 96" fill="none" xmlns="http://www.w3.org/2000/svg" role="img" aria-labelledby="title">
  <title id="title">Boontory</title>
  <rect width="96" height="96" rx="26" fill="#292524"/>
  <path d="M31 72V23h18.7c5.6 0 10 1.2 13.1 3.7 3.2 2.5 4.8 6 4.8 10.4 0 2.4-.6 4.6-1.9 6.5-1.2 1.9-3 3.3-5.3 4.3 2.7.7 4.8 2.1 6.3 4.2 1.5 2 2.3 4.5 2.3 7.4 0 4.8-1.5 8.4-4.6 10.8-3 2.4-7.4 3.7-13 3.7H31Zm10.4-28.5h8.7c4.8-.1 7.2-2 7.2-5.7 0-2.1-.6-3.6-1.8-4.5-1.2-.9-3.1-1.4-5.8-1.4h-8.3v11.6Zm0 7.4v12.7h10.1c2.3 0 4-.5 5.3-1.6 1.3-1.1 1.9-2.6 1.9-4.5 0-4.3-2.2-6.5-6.7-6.6H41.4Z" fill="#FFF7ED"/>
  <path d="M23 18h50" stroke="#FDE68A" stroke-width="4" stroke-linecap="round" opacity="0.7"/>
</svg>
